<svg xmlns="http://www.w3.org/2000/svg" width="691.570129" height="648.000061" viewBox="0 0 691.570129 648.000061">
<defs><clipPath id="rays-clip"><path d="M0 45.0001 C0 20.1472 20.1472 0 45 0 L1107.83 0 C1132.68 0 1152.83 20.1472 1152.83 45 L1152.83 657.852 C1152.83 682.705 1132.68 702.852 1107.83 702.852 L44.9999 702.852 C20.1471 702.852 0 682.705 0 657.852 L0 45.0001 Z" transform="matrix(1 0 0 1 -827.431640625 -38.1171875)"/></clipPath></defs>
<g transform="translate(41.710678 0)" clip-path="url(#rays-clip)"><path d="M324.93 161.561 L345.358 0 L345.198 162.837 L385.734 5.10362 L365.307 166.665 L425.313 15.1514 L384.777 173.045 L463.296 30.1432 L403.13 181.657 L499.045 49.7603 L420.366 192.662 L531.921 73.843 L436.165 205.58 L561.765 101.753 L450.05 220.413 L587.778 133.173 L462.019 236.999 L609.642 167.622 L471.914 254.862 L627.038 204.464 L479.415 273.841 L639.646 243.219 L484.522 293.618 L647.306 283.251 L487.075 313.713 L649.859 323.92 L487.075 334.128 L647.306 364.59 L484.522 354.383 L639.646 404.621 L479.415 374.159 L627.038 443.536 L471.914 393.138 L609.642 480.378 L462.019 411.001 L587.778 514.828 L450.05 427.428 L561.765 546.247 L436.165 442.26 L531.921 574.157 L420.366 455.338 L499.045 598.08 L403.13 466.184 L463.296 617.697 L384.777 474.955 L425.313 632.689 L365.307 481.176 L385.734 642.896 L345.198 485.003 L345.358 648 L324.93 486.279 L304.502 648 L304.502 485.003 L263.965 642.896 L284.553 481.176 L224.546 632.689 L265.083 474.955 L186.563 617.697 L246.73 466.184 L150.815 598.08 L229.494 455.338 L117.779 574.157 L213.694 442.26 L88.0949 546.247 L199.809 427.428 L62.0814 514.828 L187.84 411.001 L40.2172 480.378 L177.945 393.138 L22.8217 443.536 L170.444 374.159 L10.2139 404.621 L165.338 354.383 L2.55348 364.59 L162.784 334.128 L0 323.92 L162.784 313.713 L2.55348 283.251 L165.338 293.618 L10.2139 243.219 L170.444 273.841 L22.8217 204.464 L177.945 254.862 L40.2172 167.622 L187.84 236.999 L62.0814 133.173 L199.809 220.413 L88.0949 101.753 L213.694 205.58 L117.779 73.843 L229.494 192.662 L150.815 49.7603 L246.73 181.657 L186.563 30.1432 L265.083 173.045 L224.546 15.1514 L284.553 166.665 L263.965 5.10362 L304.502 162.837 L304.502 0 L324.93 161.561 Z" fill="none" stroke="#000" stroke-width="1"/></g>
<path d="M50.0707 14.71 L100 0 L85.4314 50.0707 L100 100 L50.0707 85.4314 L0 100 L14.71 50.0707 L0 0 L50.0707 14.71 Z" transform="matrix(0.7071067690849304 0.7071067690849304 -0.7071067690849304 0.7071067690849304 70.71067810058594 424.2890625)" fill="#b9ff66"/>
<path d="M89.4731 26.2859 L178.693 0 L152.66 89.4731 L178.693 178.693 L89.4731 152.66 L0 178.693 L26.2859 89.4731 L0 0 L89.4731 26.2859 Z" transform="matrix(0.7071067690849304 0.7071067690849304 -0.7071067690849304 0.7071067690849304 172.42161560058594 161.7109375)" fill="#191a23"/>
</svg>